<svg xmlns="http://www.w3.org/2000/svg" width="29.069" height="29" viewBox="0 0 29.069 29"><g transform="translate(-9.996 -11.161)"><g transform="translate(9.996 11.161)"><path d="M23.811-499.637a4.408,4.408,0,0,0-1.5,2.137,3.894,3.894,0,0,0,.3,2.5,2.085,2.085,0,0,0,.941.847c.361.148.432.29.148.29a1.276,1.276,0,0,0-.391.089c-.355.148-.379.284-.379,2.1v1.6H19.6c-3.12,0-3.362.006-3.7.112a2.34,2.34,0,0,0-1.208.911c-.4.592-.4.616-.4,4.487v3.475l-.485.024a1.95,1.95,0,0,0-.829.178,2.464,2.464,0,0,0-1.119,1.142l-.184.379.006,3.611.006,3.6-.645.024c-.621.018-.657.03-.829.19a.574.574,0,0,0-.16.7c.178.432-1.113.4,14.479.4,15.556,0,14.3.036,14.479-.385a.617.617,0,0,0-.166-.722c-.166-.154-.2-.166-.817-.184l-.645-.024-.018-3.682-.018-3.676-.166-.32a2.654,2.654,0,0,0-1.1-1.059,1.948,1.948,0,0,0-.823-.178l-.491-.024v-3.475c0-3.871,0-3.895-.4-4.487a2.868,2.868,0,0,0-1.054-.888c-.219-.1-.479-.106-3.711-.124l-3.481-.018v-1.6a6.027,6.027,0,0,0-.095-1.8.764.764,0,0,0-.669-.385c-.314,0-.231-.184.148-.349a2.2,2.2,0,0,0,1.267-2.261,2.938,2.938,0,0,0-1.13-1.776c-.651-.633-.7-.7-.7-.906C24.948-499.8,24.35-500.051,23.811-499.637Zm.876,2.208c.7.675.923,1.018.935,1.432.012.491-.48.793-1.219.752-.681-.042-.876-.272-.923-1.119a3.2,3.2,0,0,1,.042-.8,2.6,2.6,0,0,1,.479-.906C24.018-498.068,24.326-497.784,24.687-497.429Zm.142,6.109v1.243h-.592v-2.486h.592ZM33.1-488.7c.355.19.373.284.373,1.977,0,1.409-.012,1.551-.124,1.793a1.451,1.451,0,0,1-.734.758,1.432,1.432,0,0,1-.888.16,1.463,1.463,0,0,1-.894-.16A1.465,1.465,0,0,1,30-485.425a1.74,1.74,0,0,0-.118-.521.716.716,0,0,0-.551-.343.73.73,0,0,0-.562.355,1.245,1.245,0,0,0-.089.456,1.5,1.5,0,0,1-.858,1.308,1.432,1.432,0,0,1-.888.16,1.515,1.515,0,0,1-.858-.142,1.456,1.456,0,0,1-.87-1.273,1.74,1.74,0,0,0-.118-.521.716.716,0,0,0-.551-.343.717.717,0,0,0-.551.343,1.74,1.74,0,0,0-.118.521,1.456,1.456,0,0,1-.87,1.273,1.514,1.514,0,0,1-.858.142,1.432,1.432,0,0,1-.888-.16,1.5,1.5,0,0,1-.858-1.308,1.252,1.252,0,0,0-.089-.456.729.729,0,0,0-.562-.355.717.717,0,0,0-.551.343,1.787,1.787,0,0,0-.118.533,1.442,1.442,0,0,1-.9,1.267,1.7,1.7,0,0,1-.858.136,1.481,1.481,0,0,1-.858-.16,1.453,1.453,0,0,1-.734-.758c-.112-.243-.124-.385-.124-1.793a5.772,5.772,0,0,1,.089-1.7.7.7,0,0,1,.533-.355c.1-.024,3.895-.042,8.435-.036C32.424-488.8,32.921-488.8,33.1-488.7Zm-13.117,5.049a3,3,0,0,0,3.717.473,4.79,4.79,0,0,0,.551-.438l.284-.266.284.266a2.89,2.89,0,0,0,2.113.876,2.889,2.889,0,0,0,2.113-.876l.284-.266.284.266a4.823,4.823,0,0,0,.551.438,2.975,2.975,0,0,0,3.054.042l.255-.148v2.2H15.6v-2.2l.254.148a3,3,0,0,0,3.646-.515,1.159,1.159,0,0,1,.243-.213A1.159,1.159,0,0,1,19.981-483.649Zm15.84,3.978c.3.207.331.42.3,1.794-.024,1.113-.036,1.231-.16,1.486a1.7,1.7,0,0,1-.829.781,2.749,2.749,0,0,1-1.663,0,1.5,1.5,0,0,1-.953-1.338c-.059-.462-.13-.6-.385-.734a.615.615,0,0,0-.734.124.844.844,0,0,0-.184.556,1.572,1.572,0,0,1-.971,1.379,2.5,2.5,0,0,1-1.711-.012,1.552,1.552,0,0,1-.923-1.373.728.728,0,0,0-.355-.669.562.562,0,0,0-.592,0c-.237.124-.314.284-.361.752a1.672,1.672,0,0,1-1.977,1.456,1.67,1.67,0,0,1-1.628-1.658.641.641,0,0,0-.574-.621c-.225-.03-.272-.012-.45.166a.709.709,0,0,0-.237.568,1.553,1.553,0,0,1-.42,1.012,2.1,2.1,0,0,1-2.5.231,1.528,1.528,0,0,1-.669-1.154c-.053-.479-.124-.633-.355-.752a.573.573,0,0,0-.639.03.659.659,0,0,0-.308.645,1.545,1.545,0,0,1-.645,1.208,2.04,2.04,0,0,1-2.7-.4c-.243-.379-.272-.6-.254-1.924.018-1.142.03-1.249.142-1.4a.828.828,0,0,1,.326-.237c.154-.053,2.782-.071,11.211-.059l11.01.012Zm-17.716,5.049a3.04,3.04,0,0,0,3.629-.444l.343-.32.343.32a3.046,3.046,0,0,0,2.119.852,3.069,3.069,0,0,0,2.107-.864l.326-.308.231.231a3.008,3.008,0,0,0,2.007.923,2.88,2.88,0,0,0,2.267-.8l.367-.349.343.314a3.075,3.075,0,0,0,2.113.858,2.848,2.848,0,0,0,1.468-.391l.367-.2v2.664h-23.2v-2.67l.178.124a3.835,3.835,0,0,0,.551.284,2.1,2.1,0,0,0,1.077.154,2.136,2.136,0,0,0,1.1-.16,3.834,3.834,0,0,0,1.2-.841l.112-.148.326.3A4.509,4.509,0,0,0,18.105-474.622Z" transform="translate(-9.996 499.839)" fill="#bebebe"/></g></g></svg>