<svg xmlns="http://www.w3.org/2000/svg" width="35.655" height="28.346" viewBox="0 0 35.655 28.346"><g transform="translate(0 -52.478)"><g transform="translate(24.736 56.578)"><path d="M365.753,120.516l-8.245-8.735a1.337,1.337,0,1,0-1.945,1.835l7.379,7.817-7.379,7.818a1.337,1.337,0,0,0,1.945,1.836l8.245-8.736A1.338,1.338,0,0,0,365.753,120.516Z" transform="translate(-355.199 -111.361)" fill="#939393"/></g><g transform="translate(0.001 56.578)"><g transform="translate(0 0)"><path d="M10.555,129.25l-7.379-7.818,7.379-7.818a1.337,1.337,0,1,0-1.945-1.835L.365,120.514a1.338,1.338,0,0,0,0,1.836l8.246,8.736a1.337,1.337,0,0,0,1.945-1.836Z" transform="translate(-0.001 -111.359)" fill="#939393"/></g></g><g transform="translate(14.53 52.478)"><path d="M214.1,52.493a1.339,1.339,0,0,0-1.524,1.12l-3.922,25.671a1.337,1.337,0,0,0,1.12,1.524,1.378,1.378,0,0,0,.2.015,1.337,1.337,0,0,0,1.32-1.135l3.922-25.671A1.337,1.337,0,0,0,214.1,52.493Z" transform="translate(-208.637 -52.478)" fill="#939393"/></g></g></svg>