<svg xmlns="http://www.w3.org/2000/svg" width="22" height="30" viewBox="0 0 22 30"><g transform="translate(-14 -10)"><path d="M34,23H32V19a7,7,0,0,0-14,0v4H16V19a9,9,0,1,1,18,0Z" transform="translate(0)" fill="#bebebe"/><path d="M33,40H17a2.946,2.946,0,0,1-3-3V25a2.946,2.946,0,0,1,3-3H33a2.946,2.946,0,0,1,3,3V37A2.946,2.946,0,0,1,33,40ZM17,24a.945.945,0,0,0-1,1V37a.945.945,0,0,0,1,1H33a.945.945,0,0,0,1-1V25a.945.945,0,0,0-1-1Z" transform="translate(0 0)" fill="#bebebe"/><circle cx="2" cy="2" r="2" transform="translate(23 26)" fill="#bebebe"/><path d="M25.5,28h-1l-1,6h3Z" transform="translate(0 0)" fill="#bebebe"/></g></svg>