<svg xmlns="http://www.w3.org/2000/svg" xmlns:xlink="http://www.w3.org/1999/xlink" width="71.25" height="60.6" viewBox="0 0 71.25 60.6"><defs><filter id="a" x="0" y="0" width="71.25" height="60.6" filterUnits="userSpaceOnUse"><feOffset dy="3" input="SourceAlpha"/><feGaussianBlur stdDeviation="3" result="b"/><feFlood flood-opacity="0.161"/><feComposite operator="in" in2="b"/><feComposite in="SourceGraphic"/></filter></defs><g transform="translate(9 -45.2)"><g transform="matrix(1, 0, 0, 1, -9, 45.2)" filter="url(#a)"><path d="M53.25,65.4c0,15.975-26.625,28.4-26.625,28.4S11.648,86.811,4.16,76.577C1.664,73.166,0,69.394,0,65.4a14.2,14.2,0,0,1,26.625-6.878A14.2,14.2,0,0,1,53.25,65.4Z" transform="translate(9 -45.2)" fill="#ea8692"/></g><path d="M80.812,61.776c0,7.322-6.1,13.83-12.2,18.508a20.008,20.008,0,0,1-24.357.038C38.313,75.777,32,69.221,32,61.776a12.965,12.965,0,0,1,2.787-8.051,14.207,14.207,0,0,1,20.51,4.8,14.213,14.213,0,0,1,25.3.877A12.6,12.6,0,0,1,80.812,61.776Z" transform="translate(-28.672 0)" fill="#fe929f"/><g transform="translate(34.024 56.749)"><path d="M340.393,146.17a1.775,1.775,0,0,0-3.289,1.335c2.074,5.108-4.9,11.623-9.273,15.006A1.775,1.775,0,1,0,330,165.32C336.06,160.639,343.262,153.235,340.393,146.17Z" transform="translate(-327.141 -140.849)" fill="#ffa4b8"/><path d="M376.794,108.049c.687.177.808.35,1.331.35a1.775,1.775,0,0,0,.668-3.42,8.848,8.848,0,0,0-1.111-.367,1.775,1.775,0,1,0-.888,3.437Z" transform="translate(-370.437 -104.555)" fill="#ffa4b8"/></g></g></svg>