<svg xmlns="http://www.w3.org/2000/svg" xmlns:xlink="http://www.w3.org/1999/xlink" width="68.761" height="66.644" viewBox="0 0 68.761 66.644"><defs><filter id="a" x="0" y="0" width="68.761" height="66.644" filterUnits="userSpaceOnUse"><feOffset dy="3" input="SourceAlpha"/><feGaussianBlur stdDeviation="3" result="b"/><feFlood flood-opacity="0.161"/><feComposite operator="in" in2="b"/><feComposite in="SourceGraphic"/></filter></defs><g transform="matrix(1, 0, 0, 1, 0, 0)" filter="url(#a)"><path d="M50.628,18.876a2.694,2.694,0,0,0-2.32-1.853l-14.653-1.33L27.863,2.135a2.7,2.7,0,0,0-4.964,0L17.108,15.693,2.453,17.023A2.7,2.7,0,0,0,.92,21.744L12,31.456,8.73,45.841a2.7,2.7,0,0,0,4.015,2.917L25.38,41.2l12.633,7.555a2.7,2.7,0,0,0,4.017-2.917L38.764,31.456l11.077-9.713A2.7,2.7,0,0,0,50.628,18.876Zm-25,22.181" transform="translate(9 5.5)" fill="#fee04b"/></g></svg>