<svg xmlns="http://www.w3.org/2000/svg" width="30.136" height="30.136" viewBox="0 0 30.136 30.136"><path d="M15.068,0A15.068,15.068,0,1,1,0,15.068,15.075,15.075,0,0,1,15.068,0Zm10.2,24.373a3.176,3.176,0,0,0-2.039-1.067c-4.832-1.138-5.144-1.885-5.465-2.585a2.746,2.746,0,0,1,.257-2.482c2.167-4.09,2.624-7.564,1.29-9.782a4.711,4.711,0,0,0-4.248-2.177,4.733,4.733,0,0,0-4.281,2.214c-1.339,2.246-.87,5.706,1.317,9.74a2.731,2.731,0,0,1,.276,2.479c-.333.736-.767,1.494-5.481,2.594A3.179,3.179,0,0,0,4.862,24.37a13.8,13.8,0,0,0,20.411,0Zm.816-.982a13.813,13.813,0,1,0-22.043,0,4.779,4.779,0,0,1,2.573-1.307c2.543-.58,4.239-1.05,4.618-1.886A1.566,1.566,0,0,0,11,18.83C8.594,14.391,8.135,10.491,9.708,7.849a6.019,6.019,0,0,1,5.36-2.827,6,6,0,0,1,5.324,2.785c1.571,2.611,1.125,6.523-1.256,11.017a1.578,1.578,0,0,0-.225,1.374c.383.839,2.064,1.3,4.6,1.882A4.762,4.762,0,0,1,26.089,23.391Z" fill="#bebebe" fill-rule="evenodd"/></svg>