<svg xmlns="http://www.w3.org/2000/svg" width="24.522" height="24.522" viewBox="0 0 24.522 24.522"><path d="M12.261,0A12.261,12.261,0,1,0,24.522,12.261,12.254,12.254,0,0,0,12.261,0Zm0,22.607A10.345,10.345,0,1,1,22.607,12.261,10.34,10.34,0,0,1,12.261,22.607Z" fill="#fff"/><g transform="translate(11.303 6.173)"><path d="M236.958,128.877a.958.958,0,0,0-.958.958V136a.958.958,0,1,0,1.916,0v-6.169A.958.958,0,0,0,236.958,128.877Z" transform="translate(-236 -128.877)" fill="#fff"/></g><g transform="translate(10.968 15.43)"><circle cx="1.293" cy="1.293" r="1.293" fill="#fff"/></g></svg>